Coordinates
version=1
nRows=26
nColumns=22
inDegrees=yes

Units are S.I. units (second, meters, Newtons, ...)
If the header above contains a line with 'inDegrees', this indicates whether rotational values are in degrees (yes) or radians (no).

endheader
time	pelvis_tilt	pelvis_list	pelvis_rotation	pelvis_tx	pelvis_ty	pelvis_tz	hip_flexion_r	hip_adduction_r	hip_rotation_r	knee_angle_r	ankle_angle_r	subtalar_angle_r	hip_flexion_l	hip_adduction_l	hip_rotation_l	knee_angle_l	ankle_angle_l	subtalar_angle_l	lumbar_extension	lumbar_bending	lumbar_rotation
      0.01000000	     -0.92596807	     -2.91492276	     -9.14418405	     -1.26042627	      0.93381336	      0.04105563	     -4.45075522	      4.02288830	      4.02216344	     -3.09085279	      4.52640291	     -1.42211100	     -2.31227554	     -5.01575369	    -16.10293240	    -10.18565155	      9.94007161	      2.11094755	     -3.32816466	     -0.72957119	      1.05766918
      0.02000000	     -0.92521897	     -2.91646427	     -9.14412564	     -1.26043811	      0.93381151	      0.04101596	     -4.45019638	      4.02311552	      4.02223338	     -3.09073136	      4.52630223	     -1.42218104	     -2.31198757	     -5.01475896	    -16.10291127	    -10.18567400	      9.94018142	      2.11095042	     -3.32825277	     -0.72997077	      1.05785646
      0.03000000	     -0.92425030	     -2.91726042	     -9.13898525	     -1.26047600	      0.93381107	      0.04094341	     -4.44579606	      4.02132094	      4.02391243	     -3.09419074	      4.52498267	     -1.42319675	     -2.30845139	     -5.01134147	    -16.10165559	    -10.18498098	      9.94182140	      2.11085826	     -3.33651254	     -0.72781268	      1.06430588
      0.04000000	     -0.91819912	     -2.91585271	     -9.14064639	     -1.26053357	      0.93381624	      0.04089074	     -4.43367846	      4.01801558	      4.02584126	     -3.12083404	      4.52268266	     -1.42861864	     -2.30641526	     -5.00633910	    -16.08700728	    -10.19507341	      9.94828610	      2.10956028	     -3.35107657	     -0.73587826	      1.09183720
      0.05000000	     -0.91837122	     -2.91658172	     -9.13219426	     -1.26056483	      0.93381137	      0.04080655	     -4.42922213	      4.01628526	      4.02627433	     -3.12317551	      4.52378046	     -1.42961167	     -2.30314741	     -5.00249832	    -16.08828610	    -10.19160945	      9.94934819	      2.10926328	     -3.35600265	     -0.73472254	      1.09736451
      0.06000000	     -0.92119679	     -2.90522252	     -9.12743146	     -1.26062541	      0.93379995	      0.04071317	     -4.40052766	      4.00274508	      4.00718272	     -3.15955560	      4.54224710	     -1.44264603	     -2.29249391	     -4.98457873	    -16.06842427	    -10.19171083	      9.95471271	      2.10379686	     -3.36108939	     -0.74794996	      1.12847339
      0.07000000	     -0.92250143	     -2.90589119	     -9.10967664	     -1.26065926	      0.93379265	      0.04062080	     -4.39513062	      4.00222908	      4.00800121	     -3.16165930	      4.54384961	     -1.44374577	     -2.28759387	     -4.98224555	    -16.07061304	    -10.18566232	      9.95508113	      2.10324181	     -3.36628464	     -0.75044742	      1.13398194
      0.08000000	     -0.94719889	     -2.87861709	     -9.07406856	     -1.26071661	      0.93374584	      0.04047175	     -4.33404400	      3.97774519	      3.93677938	     -3.21256560	      4.59132612	     -1.47584305	     -2.24915511	     -4.94902650	    -16.01323292	    -10.17503924	      9.94739295	      2.08496492	     -3.34421155	     -0.77783690	      1.12670194
      0.09000000	     -0.94839108	     -2.87943495	     -9.05170433	     -1.26076324	      0.93373873	      0.04035635	     -4.32797280	      3.97651720	      3.93860262	     -3.21338558	      4.59147077	     -1.47672572	     -2.24243931	     -4.94623427	    -16.01517510	    -10.16929341	      9.94783348	      2.08447508	     -3.35303150	     -0.77740890	      1.13498353
      0.10000000	     -0.96553598	     -2.86230900	     -9.00020065	     -1.26083494	      0.93370542	      0.04018575	     -4.27924282	      3.96263275	      3.85945927	     -3.25592432	      4.61428793	     -1.50408853	     -2.20625108	     -4.92498027	    -15.94252722	    -10.16742223	      9.94808959	      2.06658073	     -3.34627119	     -0.79546046	      1.12490185
      0.11000000	     -0.96669750	     -2.86292947	     -8.97552664	     -1.26088438	      0.93370003	      0.04005197	     -4.27271032	      3.96039961	      3.86139906	     -3.25715848	      4.61487745	     -1.50492927	     -2.19893846	     -4.92063776	    -15.94497514	    -10.16067803	      9.94863939	      2.06609381	     -3.35678295	     -0.79241460	      1.13322822
      0.12000000	     -0.97493394	     -2.84966062	     -8.91972017	     -1.26096429	      0.93367956	      0.03986987	     -4.22920999	      3.94954031	      3.77386554	     -3.30836436	      4.64693655	     -1.53040823	     -2.17090203	     -4.90184719	    -15.86729061	    -10.15979188	      9.95163043	      2.04638422	     -3.36358454	     -0.80657699	      1.11969707
      0.13000000	     -0.97546866	     -2.84995117	     -8.89488095	     -1.26101040	      0.93367494	      0.03972790	     -4.22228823	      3.94656234	      3.77627721	     -3.31103637	      4.64727237	     -1.53141886	     -2.16363186	     -4.89619417	    -15.86850246	    -10.15448367	      9.95201224	      2.04571610	     -3.37498016	     -0.80160054	      1.12835554
      0.14000000	     -0.96875539	     -2.84541401	     -8.86076018	     -1.26111586	      0.93368120	      0.03958662	     -4.19659468	      3.94165991	      3.75019104	     -3.35784144	      4.65484301	     -1.54247364	     -2.14626712	     -4.88756193	    -15.81331060	    -10.17485417	      9.95106287	      2.03641973	     -3.40543260	     -0.81134227	      1.15086562
      0.15000000	     -0.98513135	     -2.83193734	     -8.80236274	     -1.26118301	      0.93364760	      0.03938070	     -4.13852588	      3.93140276	      3.63953057	     -3.42161327	      4.71420777	     -1.57894829	     -2.11226162	     -4.86690523	    -15.73551984	    -10.16655759	      9.95117789	      1.99697356	     -3.40091482	     -0.81658536	      1.11561689
      0.16000000	     -0.98202500	     -2.82836187	     -8.77592348	     -1.26127361	      0.93365005	      0.03924069	     -4.11543960	      3.92597236	      3.64095995	     -3.45727922	      4.71398728	     -1.58668024	     -2.09566246	     -4.85899353	    -15.70787534	    -10.18186338	      9.94817700	      1.98824571	     -3.42407834	     -0.81955034	      1.12836639
      0.17000000	     -1.00630246	     -2.81257172	     -8.73052263	     -1.26136150	      0.93361156	      0.03905213	     -4.03958288	      3.91467862	      3.55389939	     -3.53632946	      4.76881548	     -1.61877990	     -2.04994989	     -4.83806317	    -15.64533329	    -10.18211774	      9.94300653	      1.94448338	     -3.41257668	     -0.82597047	      1.11400654
      0.18000000	     -1.00474708	     -2.80702772	     -8.70418849	     -1.26147100	      0.93361717	      0.03890457	     -4.00928349	      3.90717639	      3.55669881	     -3.57964189	      4.76845670	     -1.62490515	     -2.03040974	     -4.82807187	    -15.61856545	    -10.19619573	      9.93956899	      1.93644160	     -3.43815708	     -0.82916618	      1.12213163
      0.19000000	     -1.03820210	     -2.78507658	     -8.65845435	     -1.26157354	      0.93357123	      0.03870833	     -3.91713526	      3.88966053	      3.46345128	     -3.66720306	      4.82858163	     -1.64571741	     -1.97503343	     -4.80190386	    -15.56091539	    -10.19106185	      9.92703615	      1.90002115	     -3.41726712	     -0.84048207	      1.10806716
      0.20000000	     -1.04026754	     -2.77617076	     -8.62977239	     -1.26169783	      0.93357735	      0.03854482	     -3.87842507	      3.87810808	      3.46543200	     -3.71654308	      4.82795455	     -1.65020700	     -1.95188352	     -4.78793750	    -15.53589476	    -10.20005155	      9.92311321	      1.89240240	     -3.44199340	     -0.84223097	      1.10545816
      0.21000000	     -1.08241898	     -2.74741284	     -8.57403483	     -1.26180664	      0.93352460	      0.03833946	     -3.77741375	      3.85465758	      3.36599226	     -3.80050729	      4.88939028	     -1.66235601	     -1.88625572	     -4.75621173	    -15.47650473	    -10.18960951	      9.90185568	      1.86078888	     -3.41127620	     -0.86192025	      1.08413399
      0.22000000	     -1.08449343	     -2.73815554	     -8.53985117	     -1.26193046	      0.93353316	      0.03818110	     -3.73886897	      3.84313665	      3.36806081	     -3.85127927	      4.88525299	     -1.66555295	     -1.86580372	     -4.74282106	    -15.45559622	    -10.19084192	      9.89860658	      1.85487118	     -3.43580401	     -0.86586313	      1.07543613
      0.23000000	     -1.12242958	     -2.70740574	     -8.47800789	     -1.26202596	      0.93348820	      0.03796592	     -3.64864359	      3.81590926	      3.26151016	     -3.92491241	      4.93861817	     -1.67578246	     -1.80625930	     -4.70693996	    -15.38850342	    -10.17545543	      9.87161665	      1.82904008	     -3.40913689	     -0.88543222	      1.04766743
      0.24000000	     -1.12585627	     -2.69794328	     -8.43825868	     -1.26213751	      0.93349251	      0.03781270	     -3.61287229	      3.80472450	      3.26213256	     -3.97016039	      4.93681577	     -1.67969841	     -1.78457487	     -4.69395680	    -15.36578327	    -10.17657658	      9.86803249	      1.82266422	     -3.43215669	     -0.89054252	      1.03327546
      0.25000000	     -1.14547483	     -2.67353435	     -8.37850480	     -1.26223371	      0.93347096	      0.03760854	     -3.54635636	      3.78022165	      3.17634475	     -4.03901057	      4.96627846	     -1.69100541	     -1.74182815	     -4.66289742	    -15.29493984	    -10.17100800	      9.84726983	      1.80496255	     -3.43120360	     -0.90667872	      1.00714676
      0.26000000	     -1.14913914	     -2.67205590	     -8.34653762	     -1.26227048	      0.93346881	      0.03747406	     -3.53758698	      3.77549218	      3.17886408	     -4.04093516	      4.96824098	     -1.69164234	     -1.73311281	     -4.65707077	    -15.29961900	    -10.16057867	      9.84763979	      1.80414106	     -3.44299222	     -0.89951745	      1.01243456
